<svg xmlns="http://www.w3.org/2000/svg" viewBox="0 0 1200 360" role="img" aria-label="wechat-typeset 九套主题人格色板总览">
  <title>wechat-typeset · 9 Theme Personas</title>
  <desc>每张小卡片是一套主题的缩影：主色 / 背景 / 正文 / 提示块 / 强调色。九张并排展示每套人格的视觉差异。</desc>

  <!-- Backdrop -->
  <rect x="0" y="0" width="1200" height="360" fill="#fdfcf8"/>

  <!-- Title -->
  <text x="600" y="36" text-anchor="middle" font-family="Georgia, 'Noto Serif SC', serif" font-size="20" fill="#2c2a22" font-weight="600">wechat-typeset · 九套主题人格</text>
  <text x="600" y="58" text-anchor="middle" font-family="-apple-system, 'PingFang SC', sans-serif" font-size="12" fill="#636870">每套人格自带一整组色板、字距、motif——切换主题不是换色，是换一种读者关系</text>

  <!-- ============ Card 1 · default ============ -->
  <g transform="translate(40,80)">
    <rect width="120" height="220" fill="#fdfdfc" stroke="#d8d8d4" stroke-width="1"/>
    <circle cx="108" cy="12" r="3" fill="#2558b0"/>
    <rect x="10" y="14" width="3" height="12" fill="#2558b0"/>
    <rect x="17" y="17" width="75" height="3" fill="#1c1f24" opacity="0.85"/>
    <rect x="10" y="34" width="100" height="2.5" fill="#1c1f24" opacity="0.6"/>
    <rect x="10" y="41" width="100" height="2.5" fill="#1c1f24" opacity="0.6"/>
    <rect x="10" y="48" width="80" height="2.5" fill="#1c1f24" opacity="0.6"/>
    <rect x="10" y="64" width="100" height="28" fill="#f5f5f3"/>
    <rect x="10" y="64" width="3" height="28" fill="#2558b0"/>
    <rect x="18" y="70" width="84" height="2.5" fill="#1c1f24" opacity="0.7"/>
    <rect x="18" y="77" width="72" height="2.5" fill="#1c1f24" opacity="0.7"/>
    <rect x="18" y="84" width="40" height="2.5" fill="#636870"/>
    <rect x="10" y="104" width="100" height="24" fill="#f0f6ef"/>
    <rect x="10" y="104" width="3" height="24" fill="#5a8759"/>
    <rect x="18" y="110" width="22" height="2.5" fill="#5a8759"/>
    <rect x="18" y="117" width="80" height="2.3" fill="#1c1f24" opacity="0.8"/>
    <rect x="18" y="122" width="60" height="2.3" fill="#1c1f24" opacity="0.8"/>
    <line x1="10" y1="150" x2="110" y2="150" stroke="#d8d8d4" stroke-width="1"/>
    <rect x="10" y="158" width="80" height="2" fill="#636870"/>
    <rect x="10" y="164" width="50" height="2" fill="#636870"/>
  </g>
  <text x="100" y="318" text-anchor="middle" font-family="Georgia, 'Noto Serif SC', serif" font-size="12" fill="#2c2a22" font-weight="600">默认主题</text>
  <text x="100" y="334" text-anchor="middle" font-family="'JetBrains Mono', ui-monospace, monospace" font-size="9" fill="#636870">default</text>

  <!-- ============ Card 2 · tech-geek ============ -->
  <g transform="translate(168,80)">
    <rect width="120" height="220" fill="#14110d" stroke="#3a3228" stroke-width="1"/>
    <circle cx="108" cy="12" r="3" fill="#e06a28"/>
    <rect x="10" y="14" width="3" height="12" fill="#d4a65a"/>
    <rect x="17" y="17" width="75" height="3" fill="#e6d9c2" opacity="0.9"/>
    <rect x="10" y="34" width="100" height="2.5" fill="#e6d9c2" opacity="0.65"/>
    <rect x="10" y="41" width="100" height="2.5" fill="#e6d9c2" opacity="0.65"/>
    <rect x="10" y="48" width="80" height="2.5" fill="#e6d9c2" opacity="0.65"/>
    <rect x="10" y="64" width="100" height="28" fill="#1e1a14" stroke="#8c8272" stroke-width="0.8" stroke-dasharray="2 2"/>
    <rect x="18" y="70" width="16" height="2.5" fill="#a8c08a"/>
    <rect x="18" y="77" width="84" height="2.3" fill="#e6d9c2" opacity="0.85"/>
    <rect x="18" y="84" width="60" height="2.3" fill="#e6d9c2" opacity="0.85"/>
    <rect x="10" y="104" width="100" height="24" fill="#1f1612"/>
    <rect x="10" y="104" width="3" height="24" fill="#c85a3a"/>
    <rect x="18" y="110" width="22" height="2.5" fill="#c85a3a"/>
    <rect x="18" y="117" width="80" height="2.3" fill="#e6d9c2" opacity="0.85"/>
    <rect x="18" y="122" width="60" height="2.3" fill="#e6d9c2" opacity="0.85"/>
    <text x="10" y="152" font-family="'JetBrains Mono', monospace" font-size="10" fill="#d4a65a">§</text>
    <text x="22" y="152" font-family="'JetBrains Mono', monospace" font-size="8" fill="#8c8272">[1]</text>
    <rect x="10" y="162" width="70" height="2" fill="#8c8272"/>
    <rect x="10" y="168" width="50" height="2" fill="#8c8272"/>
  </g>
  <text x="228" y="318" text-anchor="middle" font-family="Georgia, 'Noto Serif SC', serif" font-size="12" fill="#2c2a22" font-weight="600">极客夜行</text>
  <text x="228" y="334" text-anchor="middle" font-family="'JetBrains Mono', monospace" font-size="9" fill="#636870">tech-geek</text>

  <!-- ============ Card 3 · tech-explainer ============ -->
  <g transform="translate(296,80)">
    <rect width="120" height="220" fill="#fafbfc" stroke="#d9dee5" stroke-width="1"/>
    <circle cx="108" cy="12" r="3" fill="#f59e0b"/>
    <rect x="10" y="14" width="3" height="12" fill="#0066cc"/>
    <rect x="17" y="17" width="75" height="3" fill="#1a2233" opacity="0.9"/>
    <rect x="10" y="34" width="100" height="2.5" fill="#1a2233" opacity="0.6"/>
    <rect x="10" y="41" width="100" height="2.5" fill="#1a2233" opacity="0.6"/>
    <rect x="10" y="48" width="80" height="2.5" fill="#1a2233" opacity="0.6"/>
    <rect x="10" y="62" width="100" height="8" fill="#e8ecf1"/>
    <rect x="14" y="64" width="28" height="3" fill="#5c6778"/>
    <rect x="10" y="70" width="100" height="22" fill="#1a2233"/>
    <rect x="14" y="76" width="80" height="2" fill="#0066cc"/>
    <rect x="14" y="82" width="70" height="2" fill="#fafbfc" opacity="0.7"/>
    <rect x="14" y="87" width="60" height="2" fill="#fafbfc" opacity="0.7"/>
    <rect x="10" y="104" width="100" height="24" fill="#f0f6fd"/>
    <rect x="10" y="104" width="3" height="24" fill="#2d7fc1"/>
    <rect x="18" y="110" width="22" height="2.5" fill="#2d7fc1"/>
    <rect x="18" y="117" width="80" height="2.3" fill="#1a2233" opacity="0.8"/>
    <rect x="18" y="122" width="60" height="2.3" fill="#1a2233" opacity="0.8"/>
    <line x1="10" y1="150" x2="110" y2="150" stroke="#d9dee5" stroke-width="1"/>
    <rect x="10" y="158" width="80" height="2" fill="#5c6778"/>
    <rect x="10" y="164" width="50" height="2" fill="#5c6778"/>
  </g>
  <text x="356" y="318" text-anchor="middle" font-family="Georgia, 'Noto Serif SC', serif" font-size="12" fill="#2c2a22" font-weight="600">文档白昼</text>
  <text x="356" y="334" text-anchor="middle" font-family="'JetBrains Mono', monospace" font-size="9" fill="#636870">tech-explainer</text>

  <!-- ============ Card 4 · life-aesthetic ============ -->
  <g transform="translate(424,80)">
    <rect width="120" height="220" fill="#faf6f0" stroke="#e0d1ba" stroke-width="1" rx="4"/>
    <circle cx="108" cy="12" r="3" fill="#efb758"/>
    <rect x="10" y="14" width="3" height="12" fill="#d98141" rx="1.5"/>
    <rect x="17" y="17" width="75" height="3" fill="#3a2d20" opacity="0.85" rx="1"/>
    <rect x="10" y="34" width="100" height="2.5" fill="#3a2d20" opacity="0.55" rx="1"/>
    <rect x="10" y="41" width="100" height="2.5" fill="#3a2d20" opacity="0.55" rx="1"/>
    <rect x="10" y="48" width="80" height="2.5" fill="#3a2d20" opacity="0.55" rx="1"/>
    <path d="M 10 60 q 8 -4 16 0 t 16 0 t 16 0 t 16 0 t 16 0 t 16 0" fill="none" stroke="#b96234" stroke-width="1.2"/>
    <rect x="10" y="72" width="100" height="28" fill="#f2ead8" rx="6"/>
    <rect x="10" y="72" width="3" height="28" fill="#d98141" rx="1.5"/>
    <rect x="18" y="78" width="84" height="2.5" fill="#3a2d20" opacity="0.7" rx="1"/>
    <rect x="18" y="85" width="72" height="2.5" fill="#3a2d20" opacity="0.7" rx="1"/>
    <rect x="18" y="92" width="40" height="2.5" fill="#7a6a58" rx="1"/>
    <rect x="10" y="112" width="100" height="24" fill="#f7e8ce" rx="6"/>
    <rect x="10" y="112" width="3" height="24" fill="#d98141" rx="1.5"/>
    <rect x="18" y="118" width="22" height="2.5" fill="#d98141" rx="1"/>
    <rect x="18" y="125" width="80" height="2.3" fill="#3a2d20" opacity="0.75" rx="1"/>
    <rect x="18" y="130" width="60" height="2.3" fill="#3a2d20" opacity="0.75" rx="1"/>
    <circle cx="22" cy="152" r="1.5" fill="#b96234"/>
    <circle cx="30" cy="152" r="1.5" fill="#b96234"/>
    <circle cx="38" cy="152" r="1.5" fill="#b96234"/>
    <rect x="10" y="162" width="80" height="2" fill="#7a6a58" rx="1"/>
    <rect x="10" y="168" width="50" height="2" fill="#7a6a58" rx="1"/>
  </g>
  <text x="484" y="318" text-anchor="middle" font-family="Georgia, 'Noto Serif SC', serif" font-size="12" fill="#2c2a22" font-weight="600">慢生活</text>
  <text x="484" y="334" text-anchor="middle" font-family="'JetBrains Mono', monospace" font-size="9" fill="#636870">life-aesthetic</text>

  <!-- ============ Card 5 · business-finance ============ -->
  <g transform="translate(552,80)">
    <rect width="120" height="220" fill="#fefefe" stroke="#d9d4c4" stroke-width="1"/>
    <circle cx="108" cy="12" r="3" fill="#b8821f"/>
    <rect x="10" y="14" width="5" height="12" fill="#2a1a14"/>
    <rect x="19" y="17" width="75" height="3" fill="#0f141b"/>
    <rect x="10" y="34" width="100" height="2.5" fill="#0f141b" opacity="0.7"/>
    <rect x="10" y="41" width="100" height="2.5" fill="#0f141b" opacity="0.7"/>
    <rect x="10" y="48" width="80" height="2.5" fill="#0f141b" opacity="0.7"/>
    <rect x="10" y="62" width="100" height="36" fill="#f3f1ec"/>
    <rect x="14" y="68" width="36" height="12" fill="#2a1a14"/>
    <text x="32" y="78" text-anchor="middle" font-family="'JetBrains Mono', monospace" font-size="9" fill="#fefefe" font-weight="700">87%</text>
    <rect x="56" y="70" width="48" height="2.3" fill="#0f141b" opacity="0.75"/>
    <rect x="56" y="76" width="40" height="2.3" fill="#0f141b" opacity="0.75"/>
    <rect x="14" y="85" width="18" height="4" fill="#7a9a3a"/>
    <rect x="34" y="83" width="10" height="6" fill="#a83420"/>
    <rect x="46" y="87" width="14" height="2" fill="#7a9a3a"/>
    <rect x="10" y="104" width="100" height="24" fill="#fdf2e0"/>
    <rect x="10" y="104" width="3" height="24" fill="#8a6416"/>
    <rect x="18" y="110" width="22" height="2.5" fill="#8a6416" font-weight="700"/>
    <rect x="18" y="117" width="80" height="2.3" fill="#0f141b" opacity="0.8"/>
    <rect x="18" y="122" width="60" height="2.3" fill="#0f141b" opacity="0.8"/>
    <line x1="10" y1="148" x2="110" y2="148" stroke="#0f141b" stroke-width="1"/>
    <rect x="10" y="156" width="80" height="2" fill="#3a3f4a"/>
    <rect x="10" y="162" width="50" height="2" fill="#3a3f4a"/>
    <rect x="10" y="168" width="40" height="2" fill="#0e3654"/>
  </g>
  <text x="612" y="318" text-anchor="middle" font-family="Georgia, 'Noto Serif SC', serif" font-size="12" fill="#2c2a22" font-weight="600">硬核财经</text>
  <text x="612" y="334" text-anchor="middle" font-family="'JetBrains Mono', monospace" font-size="9" fill="#636870">business-finance</text>

  <!-- ============ Card 6 · literary-humanism ============ -->
  <g transform="translate(680,80)">
    <rect width="120" height="220" fill="#f4efe3" stroke="#b89f7a" stroke-width="1"/>
    <circle cx="108" cy="12" r="3" fill="#9a3b2e"/>
    <rect x="10" y="14" width="3" height="12" fill="#5a4a3a"/>
    <rect x="17" y="17" width="75" height="3" fill="#1f1b14" opacity="0.9"/>
    <line x1="10" y1="28" x2="110" y2="28" stroke="#5a4a3a" stroke-width="0.8"/>
    <rect x="10" y="38" width="100" height="2.5" fill="#1f1b14" opacity="0.65"/>
    <rect x="10" y="45" width="100" height="2.5" fill="#1f1b14" opacity="0.65"/>
    <rect x="10" y="52" width="100" height="2.5" fill="#1f1b14" opacity="0.65"/>
    <rect x="10" y="59" width="80" height="2.5" fill="#1f1b14" opacity="0.65"/>
    <rect x="10" y="72" width="100" height="34" fill="#ece5d1"/>
    <text x="14" y="86" font-family="'Noto Serif SC', Georgia, serif" font-size="16" fill="#9a3b2e" font-weight="700">「</text>
    <rect x="26" y="80" width="76" height="2.5" fill="#1f1b14" opacity="0.8"/>
    <rect x="26" y="86" width="60" height="2.5" fill="#1f1b14" opacity="0.8"/>
    <rect x="26" y="92" width="40" height="2.5" fill="#5a4a3a"/>
    <text x="100" y="103" font-family="'Noto Serif SC', serif" font-size="14" fill="#9a3b2e">」</text>
    <rect x="10" y="114" width="100" height="24" fill="#ece5d1" stroke="#5a4a3a" stroke-width="0.8" stroke-dasharray="2 2"/>
    <rect x="18" y="120" width="22" height="2.5" fill="#5a4a3a"/>
    <rect x="18" y="127" width="80" height="2.3" fill="#1f1b14" opacity="0.8"/>
    <rect x="18" y="132" width="60" height="2.3" fill="#1f1b14" opacity="0.8"/>
    <line x1="10" y1="152" x2="110" y2="152" stroke="#5a4a3a" stroke-width="0.8" stroke-dasharray="0 3"/>
    <circle cx="20" cy="152" r="1" fill="#5a4a3a"/>
    <circle cx="60" cy="152" r="1" fill="#5a4a3a"/>
    <circle cx="100" cy="152" r="1" fill="#5a4a3a"/>
    <rect x="10" y="162" width="80" height="2" fill="#5a4a3a" opacity="0.7"/>
    <rect x="10" y="168" width="50" height="2" fill="#5a4a3a" opacity="0.7"/>
  </g>
  <text x="740" y="318" text-anchor="middle" font-family="Georgia, 'Noto Serif SC', serif" font-size="12" fill="#2c2a22" font-weight="600">人文札记</text>
  <text x="740" y="334" text-anchor="middle" font-family="'JetBrains Mono', monospace" font-size="9" fill="#636870">literary-humanism</text>

  <!-- ============ Card 7 · industry-observer ============ -->
  <g transform="translate(808,80)">
    <rect width="120" height="220" fill="#fbf8f1" stroke="#e0d6c0" stroke-width="1"/>
    <circle cx="108" cy="12" r="3" fill="#b86f2a"/>
    <rect x="10" y="14" width="3" height="12" fill="#24364f"/>
    <rect x="17" y="17" width="75" height="3" fill="#1a2332" opacity="0.9"/>
    <g transform="translate(74,31)">
      <rect width="34" height="14" fill="none" stroke="#b86f2a" stroke-width="1"/>
      <text x="17" y="10" text-anchor="middle" font-family="'JetBrains Mono', monospace" font-size="7" fill="#b86f2a" font-weight="700">#ISSUE 24</text>
    </g>
    <rect x="10" y="50" width="100" height="2.5" fill="#1a2332" opacity="0.7"/>
    <rect x="10" y="57" width="100" height="2.5" fill="#1a2332" opacity="0.7"/>
    <rect x="10" y="64" width="80" height="2.5" fill="#1a2332" opacity="0.7"/>
    <rect x="10" y="76" width="100" height="32" fill="#f5efe1"/>
    <rect x="10" y="76" width="3" height="32" fill="#24364f"/>
    <rect x="104" y="76" width="3" height="32" fill="#24364f"/>
    <rect x="18" y="82" width="84" height="2.5" fill="#1a2332" opacity="0.85"/>
    <rect x="18" y="89" width="80" height="2.5" fill="#1a2332" opacity="0.85"/>
    <rect x="18" y="96" width="60" height="2.5" fill="#1a2332" opacity="0.85"/>
    <rect x="18" y="102" width="28" height="2" fill="#b86f2a"/>
    <rect x="10" y="116" width="48" height="26" fill="#ece3cf"/>
    <rect x="62" y="116" width="48" height="26" fill="#ece3cf"/>
    <rect x="14" y="121" width="20" height="2" fill="#24364f" font-weight="700"/>
    <rect x="14" y="128" width="38" height="1.8" fill="#1a2332" opacity="0.75"/>
    <rect x="14" y="133" width="34" height="1.8" fill="#1a2332" opacity="0.75"/>
    <rect x="66" y="121" width="20" height="2" fill="#24364f" font-weight="700"/>
    <rect x="66" y="128" width="38" height="1.8" fill="#1a2332" opacity="0.75"/>
    <rect x="66" y="133" width="34" height="1.8" fill="#1a2332" opacity="0.75"/>
    <line x1="10" y1="154" x2="110" y2="154" stroke="#e0d6c0" stroke-width="1"/>
    <rect x="10" y="162" width="80" height="2" fill="#5a6778"/>
    <rect x="10" y="168" width="50" height="2" fill="#5a6778"/>
  </g>
  <text x="868" y="318" text-anchor="middle" font-family="Georgia, 'Noto Serif SC', serif" font-size="12" fill="#2c2a22" font-weight="600">行业观察</text>
  <text x="868" y="334" text-anchor="middle" font-family="'JetBrains Mono', monospace" font-size="9" fill="#636870">industry-observer</text>

  <!-- ============ Card 8 · people-story ============ -->
  <g transform="translate(936,80)">
    <rect width="120" height="220" fill="#f2efe7" stroke="#c8c2b3" stroke-width="1"/>
    <circle cx="108" cy="12" r="3" fill="#8a3f2b"/>
    <text x="10" y="26" font-family="Georgia, 'Noto Serif SC', serif" font-size="16" fill="#8a3f2b" font-weight="700">T</text>
    <rect x="21" y="15" width="72" height="2.5" fill="#17171a" opacity="0.85"/>
    <rect x="21" y="22" width="65" height="2.5" fill="#17171a" opacity="0.85"/>
    <text x="10" y="42" font-family="Georgia, serif" font-size="9" fill="#8a3f2b" font-style="italic">II.</text>
    <rect x="22" y="36" width="60" height="3" fill="#1b2330" opacity="0.9"/>
    <rect x="10" y="48" width="100" height="2.5" fill="#17171a" opacity="0.6"/>
    <rect x="10" y="55" width="100" height="2.5" fill="#17171a" opacity="0.6"/>
    <rect x="10" y="62" width="80" height="2.5" fill="#17171a" opacity="0.6"/>
    <rect x="10" y="78" width="100" height="34" fill="#e9e5db"/>
    <text x="14" y="95" font-family="Georgia, serif" font-size="22" fill="#8a3f2b" font-weight="700">"</text>
    <rect x="28" y="86" width="76" height="2.3" fill="#17171a" opacity="0.85"/>
    <rect x="28" y="92" width="70" height="2.3" fill="#17171a" opacity="0.85"/>
    <rect x="28" y="98" width="50" height="2.3" fill="#17171a" opacity="0.85"/>
    <rect x="28" y="105" width="36" height="2" fill="#5d5d63"/>
    <rect x="10" y="118" width="100" height="22" fill="#e9e5db"/>
    <rect x="10" y="118" width="3" height="22" fill="#1b2330"/>
    <rect x="18" y="124" width="80" height="2.3" fill="#17171a" opacity="0.8"/>
    <rect x="18" y="131" width="60" height="2.3" fill="#17171a" opacity="0.8"/>
    <line x1="40" y1="154" x2="80" y2="154" stroke="#8a3f2b" stroke-width="1"/>
    <rect x="10" y="162" width="80" height="2" fill="#5d5d63"/>
    <rect x="10" y="168" width="50" height="2" fill="#5d5d63"/>
  </g>
  <text x="996" y="318" text-anchor="middle" font-family="Georgia, 'Noto Serif SC', serif" font-size="12" fill="#2c2a22" font-weight="600">人物特稿</text>
  <text x="996" y="334" text-anchor="middle" font-family="'JetBrains Mono', monospace" font-size="9" fill="#636870">people-story</text>

  <!-- ============ Card 9 · academic-frontier ============ -->
  <g transform="translate(1064,80)">
    <rect width="120" height="220" fill="#fefefe" stroke="#d8d8d4" stroke-width="1"/>
    <circle cx="108" cy="12" r="3" fill="#8a2a2a"/>
    <text x="10" y="22" font-family="Georgia, serif" font-size="8" fill="#1e2c4a" font-weight="600">1.</text>
    <rect x="20" y="15" width="72" height="3" fill="#16181d" opacity="0.9"/>
    <rect x="10" y="30" width="100" height="2.5" fill="#16181d" opacity="0.65"/>
    <rect x="10" y="37" width="100" height="2.5" fill="#16181d" opacity="0.65"/>
    <rect x="10" y="44" width="100" height="2.5" fill="#16181d" opacity="0.65"/>
    <rect x="10" y="51" width="74" height="2.5" fill="#16181d" opacity="0.65"/>
    <text x="84" y="45" font-family="Georgia, serif" font-size="7" fill="#1e2c4a" baseline-shift="super">¹</text>
    <rect x="10" y="66" width="100" height="28" fill="#fefefe" stroke="#8a2a2a" stroke-width="1"/>
    <rect x="10" y="66" width="3" height="28" fill="#8a2a2a"/>
    <text x="18" y="76" font-family="Georgia, serif" font-size="6" fill="#8a2a2a" font-weight="600">DEFINITION.</text>
    <rect x="18" y="80" width="82" height="2.3" fill="#16181d" opacity="0.8"/>
    <rect x="18" y="86" width="70" height="2.3" fill="#16181d" opacity="0.8"/>
    <rect x="18" y="91" width="40" height="2" fill="#1e2c4a" font-style="italic"/>
    <g transform="translate(10,104)">
      <rect width="100" height="22" fill="#f6f6f4"/>
      <rect x="0" y="0" width="50" height="8" fill="#ececea"/>
      <rect x="50" y="0" width="50" height="8" fill="#ececea"/>
      <line x1="50" y1="0" x2="50" y2="22" stroke="#d8d8d4" stroke-width="0.6"/>
      <line x1="0" y1="8" x2="100" y2="8" stroke="#d8d8d4" stroke-width="0.6"/>
      <line x1="0" y1="15" x2="100" y2="15" stroke="#d8d8d4" stroke-width="0.6"/>
      <rect x="4" y="11" width="32" height="1.5" fill="#16181d" opacity="0.7"/>
      <rect x="54" y="11" width="26" height="1.5" fill="#16181d" opacity="0.7"/>
      <rect x="4" y="18" width="36" height="1.5" fill="#16181d" opacity="0.7"/>
      <rect x="54" y="18" width="28" height="1.5" fill="#16181d" opacity="0.7"/>
    </g>
    <line x1="10" y1="138" x2="110" y2="138" stroke="#d8d8d4" stroke-width="0.8"/>
    <rect x="10" y="146" width="16" height="2" fill="#5a5d64"/>
    <rect x="30" y="146" width="74" height="2" fill="#5a5d64"/>
    <rect x="10" y="152" width="90" height="2" fill="#5a5d64"/>
    <rect x="10" y="162" width="26" height="2" fill="#8a2a2a"/>
    <rect x="40" y="162" width="56" height="2" fill="#5a5d64"/>
    <rect x="10" y="168" width="40" height="2" fill="#5a5d64"/>
  </g>
  <text x="1124" y="318" text-anchor="middle" font-family="Georgia, 'Noto Serif SC', serif" font-size="12" fill="#2c2a22" font-weight="600">学术前沿</text>
  <text x="1124" y="334" text-anchor="middle" font-family="'JetBrains Mono', monospace" font-size="9" fill="#636870">academic-frontier</text>
</svg>
